<mxfile host="app.diagrams.net" modified="2021-04-19T15:18:18.930Z" agent="5.0 (Macintosh; Intel Mac OS X 11_1_0) AppleWebKit/537.36 (KHTML, like Gecko) Chrome/89.0.4389.114 Safari/537.36" etag="_aox06pbzijpNX0VEC-C" version="14.5.8" type="github">
  <diagram id="Uwp-sgL31mEnVE3z81JY" name="Page-1">
    <mxGraphModel dx="2125" dy="1977" grid="1" gridSize="10" guides="1" tooltips="1" connect="1" arrows="1" fold="1" page="1" pageScale="1" pageWidth="827" pageHeight="1169" math="0" shadow="0">
      <root>
        <mxCell id="0" />
        <mxCell id="1" parent="0" />
        <mxCell id="u2GeF6c2msnijroQHOo2-34" style="edgeStyle=orthogonalEdgeStyle;rounded=0;orthogonalLoop=1;jettySize=auto;html=1;entryX=1;entryY=0.5;entryDx=0;entryDy=0;dashed=1;" edge="1" parent="1" source="u2GeF6c2msnijroQHOo2-2" target="u2GeF6c2msnijroQHOo2-32">
          <mxGeometry relative="1" as="geometry" />
        </mxCell>
        <mxCell id="u2GeF6c2msnijroQHOo2-2" value="DB" style="shape=cylinder3;whiteSpace=wrap;html=1;boundedLbl=1;backgroundOutline=1;size=15;" vertex="1" parent="1">
          <mxGeometry x="360" y="270" width="60" height="80" as="geometry" />
        </mxCell>
        <mxCell id="u2GeF6c2msnijroQHOo2-7" style="edgeStyle=orthogonalEdgeStyle;rounded=0;orthogonalLoop=1;jettySize=auto;html=1;" edge="1" parent="1" source="u2GeF6c2msnijroQHOo2-4" target="u2GeF6c2msnijroQHOo2-2">
          <mxGeometry relative="1" as="geometry" />
        </mxCell>
        <mxCell id="u2GeF6c2msnijroQHOo2-4" value="记录课程：&lt;br&gt;tblOrder&lt;br&gt;tblUserBlock" style="shape=process;whiteSpace=wrap;html=1;backgroundOutline=1;align=center;" vertex="1" parent="1">
          <mxGeometry x="330" y="150" width="120" height="60" as="geometry" />
        </mxCell>
        <mxCell id="u2GeF6c2msnijroQHOo2-9" value="" style="edgeStyle=segmentEdgeStyle;endArrow=classic;html=1;entryX=0.5;entryY=0;entryDx=0;entryDy=0;exitX=0.5;exitY=1;exitDx=0;exitDy=0;" edge="1" parent="1" target="u2GeF6c2msnijroQHOo2-4">
          <mxGeometry width="50" height="50" relative="1" as="geometry">
            <mxPoint x="390" y="70" as="sourcePoint" />
            <mxPoint x="420" y="80" as="targetPoint" />
          </mxGeometry>
        </mxCell>
        <mxCell id="u2GeF6c2msnijroQHOo2-10" value="&lt;span style=&quot;font-size: 12px ; background-color: rgb(248 , 249 , 250)&quot;&gt;用户购买异动&lt;/span&gt;" style="edgeLabel;html=1;align=center;verticalAlign=middle;resizable=0;points=[];" vertex="1" connectable="0" parent="u2GeF6c2msnijroQHOo2-9">
          <mxGeometry x="0.025" y="4" relative="1" as="geometry">
            <mxPoint as="offset" />
          </mxGeometry>
        </mxCell>
        <mxCell id="u2GeF6c2msnijroQHOo2-12" style="edgeStyle=orthogonalEdgeStyle;rounded=0;orthogonalLoop=1;jettySize=auto;html=1;exitX=0;exitY=0.5;exitDx=0;exitDy=0;entryX=1;entryY=0.5;entryDx=0;entryDy=0;entryPerimeter=0;" edge="1" parent="1" source="u2GeF6c2msnijroQHOo2-11" target="u2GeF6c2msnijroQHOo2-2">
          <mxGeometry relative="1" as="geometry" />
        </mxCell>
        <mxCell id="u2GeF6c2msnijroQHOo2-11" value="异动" style="shape=process;whiteSpace=wrap;html=1;backgroundOutline=1;align=center;" vertex="1" parent="1">
          <mxGeometry x="470" y="280" width="120" height="60" as="geometry" />
        </mxCell>
        <mxCell id="u2GeF6c2msnijroQHOo2-16" value="" style="edgeStyle=segmentEdgeStyle;endArrow=classic;html=1;entryX=1;entryY=0.25;entryDx=0;entryDy=0;exitX=0.25;exitY=1;exitDx=0;exitDy=0;" edge="1" parent="1" source="u2GeF6c2msnijroQHOo2-26" target="u2GeF6c2msnijroQHOo2-11">
          <mxGeometry width="50" height="50" relative="1" as="geometry">
            <mxPoint x="710" y="295" as="sourcePoint" />
            <mxPoint x="600" y="290" as="targetPoint" />
            <Array as="points">
              <mxPoint x="760" y="295" />
            </Array>
          </mxGeometry>
        </mxCell>
        <mxCell id="u2GeF6c2msnijroQHOo2-17" value="直播课重开" style="edgeLabel;html=1;align=center;verticalAlign=middle;resizable=0;points=[];" vertex="1" connectable="0" parent="u2GeF6c2msnijroQHOo2-16">
          <mxGeometry x="0.025" relative="1" as="geometry">
            <mxPoint as="offset" />
          </mxGeometry>
        </mxCell>
        <mxCell id="u2GeF6c2msnijroQHOo2-18" value="" style="edgeStyle=segmentEdgeStyle;endArrow=classic;html=1;entryX=1;entryY=0.25;entryDx=0;entryDy=0;exitX=0.5;exitY=1;exitDx=0;exitDy=0;" edge="1" parent="1" source="u2GeF6c2msnijroQHOo2-26">
          <mxGeometry width="50" height="50" relative="1" as="geometry">
            <mxPoint x="710" y="320" as="sourcePoint" />
            <mxPoint x="590" y="320" as="targetPoint" />
            <Array as="points">
              <mxPoint x="790" y="320" />
            </Array>
          </mxGeometry>
        </mxCell>
        <mxCell id="u2GeF6c2msnijroQHOo2-19" value="解锁时间修改" style="edgeLabel;html=1;align=center;verticalAlign=middle;resizable=0;points=[];" vertex="1" connectable="0" parent="u2GeF6c2msnijroQHOo2-18">
          <mxGeometry x="0.025" relative="1" as="geometry">
            <mxPoint as="offset" />
          </mxGeometry>
        </mxCell>
        <mxCell id="u2GeF6c2msnijroQHOo2-28" style="edgeStyle=orthogonalEdgeStyle;rounded=0;orthogonalLoop=1;jettySize=auto;html=1;entryX=0.5;entryY=0;entryDx=0;entryDy=0;" edge="1" parent="1" source="u2GeF6c2msnijroQHOo2-22" target="u2GeF6c2msnijroQHOo2-27">
          <mxGeometry relative="1" as="geometry" />
        </mxCell>
        <mxCell id="u2GeF6c2msnijroQHOo2-22" value="修改课程信息" style="shape=process;whiteSpace=wrap;html=1;backgroundOutline=1;align=center;" vertex="1" parent="1">
          <mxGeometry x="910" y="90" width="120" height="60" as="geometry" />
        </mxCell>
        <mxCell id="u2GeF6c2msnijroQHOo2-23" value="" style="edgeStyle=segmentEdgeStyle;endArrow=classic;html=1;entryX=0.5;entryY=0;entryDx=0;entryDy=0;" edge="1" parent="1" target="u2GeF6c2msnijroQHOo2-22">
          <mxGeometry width="50" height="50" relative="1" as="geometry">
            <mxPoint x="970" as="sourcePoint" />
            <mxPoint x="590" y="60" as="targetPoint" />
            <Array as="points">
              <mxPoint x="970" y="-20" />
            </Array>
          </mxGeometry>
        </mxCell>
        <mxCell id="u2GeF6c2msnijroQHOo2-24" value="&lt;span style=&quot;font-size: 12px ; background-color: rgb(248 , 249 , 250)&quot;&gt;课程异动&lt;/span&gt;" style="edgeLabel;html=1;align=center;verticalAlign=middle;resizable=0;points=[];" vertex="1" connectable="0" parent="u2GeF6c2msnijroQHOo2-23">
          <mxGeometry x="0.025" y="4" relative="1" as="geometry">
            <mxPoint as="offset" />
          </mxGeometry>
        </mxCell>
        <mxCell id="u2GeF6c2msnijroQHOo2-26" value="记录relayLog表&lt;br&gt;（异步启动异动）" style="shape=process;whiteSpace=wrap;html=1;backgroundOutline=1;align=center;" vertex="1" parent="1">
          <mxGeometry x="660" y="210" width="140" height="60" as="geometry" />
        </mxCell>
        <mxCell id="u2GeF6c2msnijroQHOo2-29" style="edgeStyle=orthogonalEdgeStyle;rounded=0;orthogonalLoop=1;jettySize=auto;html=1;entryX=1;entryY=0.5;entryDx=0;entryDy=0;" edge="1" parent="1" source="u2GeF6c2msnijroQHOo2-27" target="u2GeF6c2msnijroQHOo2-26">
          <mxGeometry relative="1" as="geometry" />
        </mxCell>
        <mxCell id="u2GeF6c2msnijroQHOo2-31" style="edgeStyle=orthogonalEdgeStyle;rounded=0;orthogonalLoop=1;jettySize=auto;html=1;" edge="1" parent="1" source="u2GeF6c2msnijroQHOo2-27" target="u2GeF6c2msnijroQHOo2-30">
          <mxGeometry relative="1" as="geometry" />
        </mxCell>
        <mxCell id="u2GeF6c2msnijroQHOo2-27" value="向das发送修改请求" style="shape=process;whiteSpace=wrap;html=1;backgroundOutline=1;align=center;" vertex="1" parent="1">
          <mxGeometry x="910" y="210" width="120" height="60" as="geometry" />
        </mxCell>
        <mxCell id="u2GeF6c2msnijroQHOo2-30" value="commit" style="rounded=1;whiteSpace=wrap;html=1;align=center;" vertex="1" parent="1">
          <mxGeometry x="910" y="330" width="120" height="60" as="geometry" />
        </mxCell>
        <mxCell id="u2GeF6c2msnijroQHOo2-32" value="数据使用" style="shape=process;whiteSpace=wrap;html=1;backgroundOutline=1;align=center;" vertex="1" parent="1">
          <mxGeometry x="150" y="280" width="120" height="60" as="geometry" />
        </mxCell>
        <mxCell id="u2GeF6c2msnijroQHOo2-38" style="edgeStyle=orthogonalEdgeStyle;rounded=0;orthogonalLoop=1;jettySize=auto;html=1;entryX=0.5;entryY=0;entryDx=0;entryDy=0;exitX=0.5;exitY=1;exitDx=0;exitDy=0;" edge="1" parent="1" source="u2GeF6c2msnijroQHOo2-35" target="u2GeF6c2msnijroQHOo2-32">
          <mxGeometry relative="1" as="geometry" />
        </mxCell>
        <mxCell id="u2GeF6c2msnijroQHOo2-35" value="履约" style="rounded=0;whiteSpace=wrap;html=1;align=center;" vertex="1" parent="1">
          <mxGeometry x="10" y="130" width="30" height="100" as="geometry" />
        </mxCell>
        <mxCell id="u2GeF6c2msnijroQHOo2-39" style="edgeStyle=orthogonalEdgeStyle;rounded=0;orthogonalLoop=1;jettySize=auto;html=1;entryX=0.5;entryY=0;entryDx=0;entryDy=0;" edge="1" parent="1" source="u2GeF6c2msnijroQHOo2-36" target="u2GeF6c2msnijroQHOo2-32">
          <mxGeometry relative="1" as="geometry" />
        </mxCell>
        <mxCell id="u2GeF6c2msnijroQHOo2-36" value="用户上课列表" style="rounded=0;whiteSpace=wrap;html=1;align=center;" vertex="1" parent="1">
          <mxGeometry x="195" y="132" width="30" height="100" as="geometry" />
        </mxCell>
        <mxCell id="u2GeF6c2msnijroQHOo2-40" style="edgeStyle=orthogonalEdgeStyle;rounded=0;orthogonalLoop=1;jettySize=auto;html=1;entryX=0.5;entryY=0;entryDx=0;entryDy=0;exitX=0.5;exitY=1;exitDx=0;exitDy=0;" edge="1" parent="1" source="u2GeF6c2msnijroQHOo2-37" target="u2GeF6c2msnijroQHOo2-32">
          <mxGeometry relative="1" as="geometry" />
        </mxCell>
        <mxCell id="u2GeF6c2msnijroQHOo2-37" value="用户章节解锁状态" style="rounded=0;whiteSpace=wrap;html=1;align=center;" vertex="1" parent="1">
          <mxGeometry x="290" y="130" width="30" height="100" as="geometry" />
        </mxCell>
        <mxCell id="u2GeF6c2msnijroQHOo2-41" value="" style="shape=curlyBracket;whiteSpace=wrap;html=1;rounded=1;align=center;rotation=-90;size=0.25;" vertex="1" parent="1">
          <mxGeometry x="15" y="50" width="20" height="120" as="geometry" />
        </mxCell>
        <mxCell id="u2GeF6c2msnijroQHOo2-42" value="退课" style="text;html=1;strokeColor=none;fillColor=none;align=center;verticalAlign=middle;whiteSpace=wrap;rounded=0;" vertex="1" parent="1">
          <mxGeometry x="-50" y="70" width="40" height="20" as="geometry" />
        </mxCell>
        <mxCell id="u2GeF6c2msnijroQHOo2-43" value="走查减课" style="text;html=1;strokeColor=none;fillColor=none;align=center;verticalAlign=middle;whiteSpace=wrap;rounded=0;" vertex="1" parent="1">
          <mxGeometry x="-10" y="70" width="50" height="20" as="geometry" />
        </mxCell>
        <mxCell id="u2GeF6c2msnijroQHOo2-44" value="其他形式删课" style="text;html=1;strokeColor=none;fillColor=none;align=center;verticalAlign=middle;whiteSpace=wrap;rounded=0;" vertex="1" parent="1">
          <mxGeometry x="50" y="70" width="80" height="20" as="geometry" />
        </mxCell>
        <mxCell id="u2GeF6c2msnijroQHOo2-46" value="" style="shape=curlyBracket;whiteSpace=wrap;html=1;rounded=1;align=center;rotation=-90;size=0.25;" vertex="1" parent="1">
          <mxGeometry x="200" y="35" width="20" height="150" as="geometry" />
        </mxCell>
        <mxCell id="u2GeF6c2msnijroQHOo2-50" value="课程来源：&lt;br&gt;1、种课；&lt;br&gt;2、购课；&lt;br&gt;3、0元课；" style="text;html=1;strokeColor=none;fillColor=none;align=left;verticalAlign=middle;whiteSpace=wrap;rounded=0;" vertex="1" parent="1">
          <mxGeometry x="125" y="30" width="70" height="80" as="geometry" />
        </mxCell>
        <mxCell id="u2GeF6c2msnijroQHOo2-51" value="解锁时间：&lt;br&gt;1、解锁时间；&lt;br&gt;2、购买时间；&lt;br&gt;3、闯关解锁；" style="text;html=1;strokeColor=none;fillColor=none;align=left;verticalAlign=middle;whiteSpace=wrap;rounded=0;" vertex="1" parent="1">
          <mxGeometry x="190" y="35" width="90" height="70" as="geometry" />
        </mxCell>
        <mxCell id="u2GeF6c2msnijroQHOo2-52" value="展示序列：&lt;br&gt;1、解锁时间；&lt;br&gt;2、解锁当天；" style="text;html=1;strokeColor=none;fillColor=none;align=left;verticalAlign=middle;whiteSpace=wrap;rounded=0;" vertex="1" parent="1">
          <mxGeometry x="270" y="40" width="90" height="60" as="geometry" />
        </mxCell>
        <mxCell id="u2GeF6c2msnijroQHOo2-53" value="yaya-das" style="rounded=0;whiteSpace=wrap;html=1;align=left;opacity=30;fillColor=#ffe6cc;strokeColor=#d79b00;verticalAlign=top;fontStyle=1" vertex="1" parent="1">
          <mxGeometry x="-50" y="-70" width="870" height="570" as="geometry" />
        </mxCell>
        <mxCell id="u2GeF6c2msnijroQHOo2-54" value="yycourse" style="rounded=0;whiteSpace=wrap;html=1;align=left;opacity=30;fillColor=#ffe6cc;strokeColor=#d79b00;verticalAlign=top;fontStyle=1" vertex="1" parent="1">
          <mxGeometry x="860" y="-70" width="220" height="570" as="geometry" />
        </mxCell>
      </root>
    </mxGraphModel>
  </diagram>
</mxfile>
